<svg width="1200" height="700" viewBox="0 0 1200 700" fill="none" xmlns="http://www.w3.org/2000/svg">
  <defs>
    <linearGradient id="bg" x1="0" y1="0" x2="1200" y2="700" gradientUnits="userSpaceOnUse">
      <stop stop-color="#0f172a"/>
      <stop offset="1" stop-color="#1d4ed8"/>
    </linearGradient>
    <linearGradient id="card" x1="0" y1="0" x2="1" y2="1">
      <stop stop-color="#ffffff" stop-opacity="0.95"/>
      <stop offset="1" stop-color="#dbeafe" stop-opacity="0.85"/>
    </linearGradient>
  </defs>
  <rect width="1200" height="700" rx="42" fill="url(#bg)"/>
  <circle cx="980" cy="130" r="180" fill="#93c5fd" fill-opacity="0.25"/>
  <circle cx="190" cy="620" r="220" fill="#38bdf8" fill-opacity="0.22"/>
  <rect x="110" y="110" width="520" height="470" rx="28" fill="url(#card)"/>
  <rect x="150" y="165" width="220" height="26" rx="13" fill="#bfdbfe"/>
  <rect x="150" y="210" width="420" height="18" rx="9" fill="#cbd5e1"/>
  <rect x="150" y="240" width="360" height="18" rx="9" fill="#cbd5e1"/>
  <rect x="150" y="300" width="180" height="110" rx="18" fill="#eff6ff"/>
  <rect x="350" y="300" width="220" height="110" rx="18" fill="#dbeafe"/>
  <rect x="150" y="430" width="420" height="18" rx="9" fill="#cbd5e1"/>
  <rect x="150" y="465" width="270" height="18" rx="9" fill="#cbd5e1"/>
  <g>
    <circle cx="820" cy="390" r="132" fill="#eff6ff"/>
    <circle cx="820" cy="340" r="62" fill="#93c5fd"/>
    <rect x="742" y="406" width="156" height="122" rx="58" fill="#bfdbfe"/>
  </g>
  <g>
    <circle cx="1010" cy="420" r="96" fill="#e0f2fe"/>
    <circle cx="1010" cy="382" r="44" fill="#60a5fa"/>
    <rect x="952" y="430" width="116" height="90" rx="42" fill="#93c5fd"/>
  </g>
</svg>
