<svg width="640" height="320" viewBox="0 0 640 320" fill="none" xmlns="http://www.w3.org/2000/svg">
  <defs>
    <linearGradient id="bg" x1="0" y1="0" x2="640" y2="320" gradientUnits="userSpaceOnUse">
      <stop stop-color="#F8F8FB"/>
      <stop offset="1" stop-color="#ECE9FF"/>
    </linearGradient>
    <filter id="soft" x="0" y="0" width="640" height="320" filterUnits="userSpaceOnUse">
      <feGaussianBlur stdDeviation="0.2"/>
    </filter>
  </defs>

  <rect width="640" height="320" rx="24" fill="url(#bg)"/>

  <circle cx="118" cy="90" r="46" fill="#FFD33D"/>
  <circle cx="518" cy="244" r="42" fill="#F34A58"/>
  <circle cx="286" cy="214" r="28" fill="#6D56FF"/>
  <circle cx="520" cy="78" r="18" fill="#2D9BF0"/>
  <circle cx="168" cy="224" r="14" fill="#111827"/>

  <path d="M54 222C108 184 190 181 252 201C320 223 385 197 430 166C475 136 528 140 592 170" stroke="#111827" stroke-width="6" stroke-linecap="round"/>
  <path d="M74 116C142 130 228 114 308 88C382 64 450 70 540 102" stroke="#6D56FF" stroke-width="5" stroke-linecap="round"/>

  <path d="M238 72L282 126L230 132L238 72Z" fill="#111827"/>
  <path d="M404 236L444 250L410 278L404 236Z" fill="#2D9BF0"/>
  <rect x="334" y="138" width="52" height="52" rx="8" fill="#F34A58"/>
  <rect x="92" y="246" width="58" height="18" rx="9" fill="#6D56FF"/>

  <g filter="url(#soft)">
    <circle cx="84" cy="58" r="5" fill="#111827"/>
    <circle cx="214" cy="58" r="5" fill="#111827"/>
    <circle cx="336" cy="52" r="5" fill="#111827"/>
    <circle cx="454" cy="64" r="5" fill="#111827"/>
    <circle cx="574" cy="92" r="5" fill="#111827"/>
    <circle cx="560" cy="180" r="5" fill="#111827"/>
    <circle cx="436" cy="272" r="5" fill="#111827"/>
    <circle cx="306" cy="284" r="5" fill="#111827"/>
    <circle cx="186" cy="270" r="5" fill="#111827"/>
  </g>
</svg>
