<svg width="160" height="160" viewBox="0 0 160 160" fill="none" xmlns="http://www.w3.org/2000/svg">
  <defs>
    <linearGradient id="bg" x1="0" y1="0" x2="160" y2="160" gradientUnits="userSpaceOnUse">
      <stop stop-color="#BFD9FF"/>
      <stop offset="1" stop-color="#F7D9C7"/>
    </linearGradient>
    <linearGradient id="hair" x1="80" y1="34" x2="80" y2="94" gradientUnits="userSpaceOnUse">
      <stop stop-color="#28354D"/>
      <stop offset="1" stop-color="#1D2739"/>
    </linearGradient>
  </defs>
  <circle cx="80" cy="80" r="80" fill="url(#bg)"/>
  <ellipse cx="80" cy="166" rx="62" ry="54" fill="#32496C"/>
  <path d="M48 74C48 56 62 42 80 42C98 42 112 56 112 74V82H48V74Z" fill="url(#hair)"/>
  <circle cx="80" cy="83" r="30" fill="#F2C9AE"/>
  <ellipse cx="69" cy="83" rx="3" ry="2.6" fill="#24344B"/>
  <ellipse cx="91" cy="83" rx="3" ry="2.6" fill="#24344B"/>
  <path d="M72 95C74.8 98.2 78.2 99.8 82.4 99.8C86 99.8 89.2 98.4 92 96" stroke="#B57458" stroke-width="2.2" stroke-linecap="round"/>
  <path d="M56 77C58.6 66 66.8 58 79.2 58C92.2 58 101.4 65 104 77" stroke="#1B2536" stroke-width="3" stroke-linecap="round"/>
  <circle cx="118" cy="44" r="16" fill="#ffffff" fill-opacity="0.24"/>
</svg>
