<svg width="512" height="512" viewBox="0 0 512 512" fill="none" xmlns="http://www.w3.org/2000/svg">
  <defs>
    <linearGradient id="bloomBg" x1="80" y1="76" x2="432" y2="430" gradientUnits="userSpaceOnUse">
      <stop stop-color="#0A2A52"/>
      <stop offset="1" stop-color="#0F766E"/>
    </linearGradient>
    <linearGradient id="bloomPetal" x1="172" y1="162" x2="344" y2="350" gradientUnits="userSpaceOnUse">
      <stop stop-color="#C9F8FF"/>
      <stop offset="1" stop-color="#67E8F9"/>
    </linearGradient>
  </defs>
  <rect x="74" y="74" width="364" height="364" rx="108" fill="url(#bloomBg)"/>
  <circle cx="256" cy="256" r="22" fill="#E6FFFF"/>
  <path d="M256 166C282 166 304 188 304 214C304 240 282 262 256 262C230 262 208 240 208 214C208 188 230 166 256 166Z" stroke="url(#bloomPetal)" stroke-width="10"/>
  <path d="M346 256C346 282 324 304 298 304C272 304 250 282 250 256C250 230 272 208 298 208C324 208 346 230 346 256Z" stroke="#9CEFFF" stroke-width="10"/>
  <path d="M256 346C230 346 208 324 208 298C208 272 230 250 256 250C282 250 304 272 304 298C304 324 282 346 256 346Z" stroke="#83E6FF" stroke-width="10"/>
  <path d="M166 256C166 230 188 208 214 208C240 208 262 230 262 256C262 282 240 304 214 304C188 304 166 282 166 256Z" stroke="#6BDCF9" stroke-width="10"/>
</svg>
