<svg xmlns="http://www.w3.org/2000/svg" viewBox="0 0 800 360" role="img" aria-label="Diario emocional">
  <rect width="800" height="360" fill="#f1f3f8"/>
  <rect x="24" y="24" width="752" height="120" rx="14" fill="#4a5568"/>
  <rect x="44" y="100" width="180" height="20" rx="4" fill="#fff" opacity="0.92"/>
  <rect x="24" y="160" width="480" height="176" rx="14" fill="#fff" stroke="#e2e8f0"/>
  <rect x="44" y="180" width="100" height="12" rx="4" fill="#64748b"/>
  <circle cx="60" cy="216" r="16" fill="#ede9fe"/>
  <circle cx="100" cy="216" r="16" fill="#ede9fe"/>
  <circle cx="140" cy="216" r="16" fill="#5f44eb"/>
  <rect x="44" y="248" width="420" height="64" rx="8" fill="#f8fafc" stroke="#e2e8f0"/>
  <rect x="524" y="160" width="252" height="176" rx="14" fill="#fff" stroke="#e2e8f0"/>
  <rect x="544" y="180" width="120" height="12" rx="4" fill="#64748b"/>
  <rect x="544" y="204" width="200" height="24" rx="6" fill="#f8fafc"/>
  <rect x="544" y="236" width="200" height="24" rx="6" fill="#f8fafc"/>
  <rect x="544" y="268" width="200" height="24" rx="6" fill="#f8fafc"/>
</svg>
