<svg xmlns="http://www.w3.org/2000/svg" viewBox="0 0 800 480" role="img" aria-label="Inicio">
  <rect width="800" height="480" fill="#f1f3f8"/>
  <rect x="16" y="16" width="168" height="448" rx="14" fill="#fff" stroke="#e2e8f0"/>
  <rect x="32" y="36" width="80" height="12" rx="6" fill="#cbd5e1"/>
  <rect x="32" y="72" width="120" height="28" rx="8" fill="#ede9fe"/>
  <rect x="32" y="108" width="120" height="28" rx="8" fill="#f8fafc"/>
  <rect x="32" y="144" width="120" height="28" rx="8" fill="#f8fafc"/>
  <rect x="200" y="16" width="584" height="200" rx="14" fill="#1a2234"/>
  <rect x="220" y="140" width="200" height="20" rx="4" fill="#fff" opacity="0.9"/>
  <rect x="220" y="168" width="280" height="12" rx="4" fill="#fff" opacity="0.55"/>
  <rect x="200" y="232" width="280" height="100" rx="14" fill="#fff" stroke="#e2e8f0"/>
  <rect x="220" y="252" width="100" height="10" rx="4" fill="#94a3b8"/>
  <rect x="220" y="276" width="160" height="24" rx="6" fill="#5f44eb"/>
  <rect x="500" y="232" width="284" height="100" rx="14" fill="#fff" stroke="#e2e8f0"/>
  <circle cx="540" cy="282" r="24" fill="#ede9fe"/>
  <rect x="576" y="262" width="120" height="12" rx="4" fill="#334155"/>
  <rect x="576" y="282" width="80" height="10" rx="4" fill="#94a3b8"/>
  <rect x="200" y="348" width="584" height="116" rx="14" fill="#fff" stroke="#e2e8f0"/>
  <rect x="220" y="368" width="140" height="12" rx="4" fill="#64748b"/>
  <rect x="220" y="392" width="520" height="48" rx="8" fill="#f8fafc"/>
</svg>
