<svg xmlns="http://www.w3.org/2000/svg" viewBox="0 0 800 360" role="img" aria-label="Sesiones">
  <rect width="800" height="360" fill="#f1f3f8"/>
  <rect x="24" y="24" width="752" height="140" rx="14" fill="#334155"/>
  <rect x="44" y="120" width="120" height="18" rx="4" fill="#fff" opacity="0.95"/>
  <rect x="44" y="144" width="200" height="10" rx="4" fill="#fff" opacity="0.6"/>
  <rect x="24" y="184" width="360" height="152" rx="14" fill="#fff" stroke="#e2e8f0"/>
  <rect x="44" y="204" width="120" height="12" rx="4" fill="#64748b"/>
  <rect x="44" y="232" width="280" height="36" rx="8" fill="#f5f3ff" stroke="#c4b5fd"/>
  <rect x="44" y="280" width="120" height="32" rx="8" fill="#5f44eb"/>
  <rect x="404" y="184" width="372" height="152" rx="14" fill="#fff" stroke="#e2e8f0"/>
  <rect x="424" y="204" width="140" height="12" rx="4" fill="#64748b"/>
  <rect x="424" y="228" width="320" height="28" rx="6" fill="#f8fafc"/>
  <rect x="424" y="264" width="320" height="28" rx="6" fill="#f8fafc"/>
  <rect x="424" y="300" width="320" height="28" rx="6" fill="#f8fafc"/>
</svg>
